<svg height="511pt" viewBox="0 -33 511.93227 511" width="511pt" xmlns="http://www.w3.org/2000/svg"><path d="m44.117188 163.390625-35.582032-35.582031 118.78125-118.785156 90.113282 90.113281-58.855469 111.894531zm0 0" fill="#cfd8dc"/><path d="m44.117188 171.925781c-2.261719 0-4.433594-.902343-6.03125-2.5l-29.550782-29.550781c-6.664062-6.667969-6.664062-17.46875 0-24.132812l106.714844-106.71875c6.75-6.453126 17.382812-6.453126 24.132812 0l84.082032 84.070312c3.230468 3.347656 3.1875 8.671875-.105469 11.960938-3.292969 3.292968-8.613281 3.339843-11.960937.105468l-84.082032-84.070312-106.714844 106.71875 29.550782 29.550781c2.4375 2.4375 3.167968 6.109375 1.847656 9.296875s-4.429688 5.269531-7.882812 5.269531zm0 0" fill="#e6e7e8"/><path d="m457.898438 192.234375c-6.058594.253906-14.078126 0-23.464844-.425781-76.203125-3.925782-244.738282-28.160156-244.738282-28.160156-3.816406-.167969-7.058593-2.851563-7.933593-6.570313l-8.449219-37.632813c-.113281-.328124-.140625-.679687-.085938-1.023437-.507812-4.304687 2.335938-8.292969 6.570313-9.21875l44.714844-10.066406 199.679687-44.800781c4.617188-1.03125 9.199219 1.871093 10.242188 6.484374l23.292968 104.191407c.171876.769531 9.304688 26.878906.171876 27.222656zm0 0" fill="#00838f"/><path d="m434.433594 191.808594c-76.203125-3.925782-244.738282-28.160156-244.738282-28.160156-3.816406-.167969-7.058593-2.851563-7.933593-6.570313l-8.449219-37.632813c-.113281-.328124-.140625-.679687-.085938-1.023437l24.492188-5.546875 199.765625-44.800781c4.59375-1.003907 9.132813 1.894531 10.152344 6.484375l23.382812 104.277344c1.394531 4.253906 2.535157 8.582031 3.414063 12.972656zm0 0" fill="#00bcd4"/><path d="m384 171.925781c-1.773438-.003906-3.503906-.558593-4.949219-1.589843l-63.914062-3.769532c-.910157 2.296875-2.773438 4.085938-5.105469 4.90625-2.335938.816406-4.90625.585938-7.054688-.640625l-46.976562-7.441406c0 4.714844-3.820312 8.535156-8.53125 8.535156-4.714844 0-8.535156-3.820312-8.535156-8.535156v-34.132813c-.003906-3.050781 1.617187-5.875 4.257812-7.402343 2.644532-1.527344 5.898438-1.53125 8.542969-.003907l51.199219 29.269532 13.414062-33.570313c.972656-2.433593 3.011719-4.285156 5.527344-5.019531 2.511719-.738281 5.226562-.277344 7.359375 1.246094l59.734375 42.667968c3.019531 2.15625 4.300781 6.019532 3.167969 9.554688-1.136719 3.53125-4.425781 5.929688-8.136719 5.925781zm0 0" fill="#4caf50"/><path d="m392.535156 137.792969c-14.140625 0-25.601562-11.464844-25.601562-25.601563 0-14.136718 11.460937-25.601562 25.601562-25.601562 14.136719 0 25.597656 11.464844 25.597656 25.601562 0 14.136719-11.460937 25.601563-25.597656 25.601563zm0 0" fill="#ffb301"/><path d="m503.46875 197.523438-28.417969 224c-1.074219 8.519531-8.308593 14.914062-16.894531 14.933593h-14.167969c4.851563-.007812 9.472657-2.074219 12.710938-5.6875s4.792969-8.433593 4.273437-13.253906l-4.523437-40.792969-19.882813-179.199218h-.085937l-3.414063-30.890626-.253906-2.558593zm0 0" fill="#ad1457"/><path d="m443.988281 436.457031h-389.886719c-8.691406-.027343-15.988281-6.554687-16.980468-15.1875l-12.542969-112.898437-1.792969-16.46875-14.25-128.511719h424.191406l14.335938 128.683594 1.621094 14.761719 12.289062 110.679687c.519532 4.820313-1.035156 9.640625-4.273437 13.253906s-7.859375 5.679688-12.710938 5.6875zm0 0" fill="#ad1457"/><path d="m418.390625 436.457031h-364.289063c-8.691406-.027343-15.988281-6.554687-16.980468-15.1875l-12.542969-112.898437-1.792969-16.46875-14.25-128.511719h398.589844l14.335938 128.683594 1.621093 14.761719 12.289063 110.679687c.519531 4.820313-1.03125 9.640625-4.269532 13.253906-3.238281 3.613281-7.859374 5.679688-12.710937 5.6875zm0 0" fill="#e91e63"/><path d="m264.535156 299.925781c0 18.851563-15.285156 34.132813-34.132812 34.132813-18.851563 0-34.136719-15.28125-34.136719-34.132813 0-18.851562 15.285156-34.132812 34.136719-34.132812 18.847656 0 34.132812 15.28125 34.132812 34.132812zm0 0" fill="#3f51b5"/><path d="m2.175781 157.699219c-1.617187 1.808593-2.390625 4.21875-2.1249998 6.628906l28.6132808 257.886719c.976563 8.601562 6.25 16.117187 14.003907 19.960937 1.585937 1.773438 3.847656 2.796875 6.230469 2.816407h409.238281c12.886719-.023438 23.753906-9.601563 25.398437-22.382813l28.398438-224.007813c0-.09375 0-.171874 0-.265624-.046875-1.105469-.152344-2.210938-.324219-3.304688-.199219-.511719-.449219-1.003906-.742187-1.464844-.21875-.492187-.480469-.960937-.785157-1.402344-.34375-.351562-.714843-.675781-1.109375-.972656-.441406-.429687-.933594-.8125-1.460937-1.132812-.085938 0-.128907-.128906-.214844-.171875l-39.667969-19.824219-26.753906-119.464844c-.496094-2.21875-1.851562-4.148437-3.777344-5.359375-1.921875-1.214843-4.246094-1.609375-6.460937-1.101562l-209.171875 46.96875-88.113282-88.140625c-3.332031-3.332032-8.734374-3.332032-12.066406 0l-118.785156 118.808594c-3.332031 3.332031-3.332031 8.734374 0 12.066406l21.019531 21.019531h-14.984375c-2.429687 0-4.738281 1.03125-6.359375 2.839844zm466.175781 248.976562-25.523437-229.929687 51.414063 25.703125zm-20.410156-246.457031-8.925781-4.464844c-1.558594-.726562-3.300781-.957031-4.992187-.65625-.414063-.113281-.835938-.195312-1.261719-.238281h-46.023438l-57.511719-41.082031c-2.132812-1.523438-4.847656-1.984375-7.363281-1.246094-2.511719.734375-4.550781 2.585938-5.523437 5.019531l-13.40625 33.570313-51.199219-29.269532c-2.644531-1.527343-5.898437-1.523437-8.542969.003907-2.640625 1.527343-4.261718 4.351562-4.257812 7.402343v25.601563h-48.894532l-8.40625-37.328125 244.460938-54.832031zm-90.566406-5.359375h-37.546875l8.355469-20.875zm-82.300781 0h-19.074219v-10.898437zm-254.472657-27.050781 106.714844-106.71875 74.4375 74.4375-32.195312 7.277344c-2.21875.496093-4.144532 1.855468-5.355469 3.777343s-1.605469 4.25-1.097656 6.460938l9.4375 41.816406h-124.890625zm404.519532 44.117187 2.691406 24.171875c-.140625.46875-.238281.945313-.292969 1.425782.015625 1.242187.308594 2.460937.855469 3.578124l10.007812 90.289063h-139.714843c-4.714844 0-8.535157 3.820313-8.535157 8.535156 0 4.710938 3.820313 8.53125 8.535157 8.53125h141.652343l12.203126 109.996094c.265624 2.417969-.511719 4.835937-2.140626 6.648437-1.625 1.808594-3.949218 2.835938-6.382812 2.824219h-389.890625c-4.34375-.003906-7.996094-3.277343-8.472656-7.597656l-12.414063-111.871094h128.910156c4.714844 0 8.535157-3.820312 8.535157-8.53125 0-4.714843-3.820313-8.535156-8.535157-8.535156h-130.804687l-13.261719-119.464844zm0 0"/><path d="m230.402344 342.589844c23.5625 0 42.664062-19.101563 42.664062-42.664063 0-23.566406-19.101562-42.667969-42.664062-42.667969-23.566406 0-42.667969 19.101563-42.667969 42.667969.027344 23.550781 19.113281 42.636719 42.667969 42.664063zm0-68.265625c14.136718 0 25.597656 11.460937 25.597656 25.601562 0 14.136719-11.460938 25.597657-25.597656 25.597657-14.140625 0-25.601563-11.460938-25.601563-25.597657 0-14.140625 11.460938-25.601562 25.601563-25.601562zm0 0"/><path d="m392.535156 137.792969c14.136719 0 25.597656-11.464844 25.597656-25.601563 0-14.136718-11.460937-25.601562-25.597656-25.601562-14.140625 0-25.601562 11.464844-25.601562 25.601562 0 14.136719 11.460937 25.601563 25.601562 25.601563zm0-34.136719c4.710938 0 8.53125 3.820312 8.53125 8.535156 0 4.710938-3.820312 8.53125-8.53125 8.53125-4.714844 0-8.535156-3.820312-8.535156-8.53125 0-4.714844 3.820312-8.535156 8.535156-8.535156zm0 0"/><path d="m135.484375 54.957031c-3.332031-3.332031-8.734375-3.332031-12.066406 0l-68.265625 68.269531c-2.21875 2.140626-3.109375 5.3125-2.328125 8.296876.78125 2.984374 3.109375 5.3125 6.09375 6.09375s6.15625-.109376 8.300781-2.328126l68.265625-68.265624c3.332031-3.332032 3.332031-8.734376 0-12.066407zm0 0"/><path d="m161.085938 80.558594c-3.332032-3.332032-8.734376-3.332032-12.066407 0l-42.667969 42.667968c-2.21875 2.140626-3.109374 5.3125-2.328124 8.296876.78125 2.984374 3.113281 5.3125 6.09375 6.09375 2.984374.78125 6.15625-.109376 8.300781-2.328126l42.667969-42.664062c3.328124-3.332031 3.328124-8.734375 0-12.066406zm0 0"/></svg>